<svg xmlns="http://www.w3.org/2000/svg" viewBox="0 0 419.53 175.55"><defs><style>.cls-1{fill:#2a206f;}.cls-2{fill:none;stroke:#302779;stroke-miterlimit:10;stroke-width:0.5px;}</style></defs><title>Asset 1</title><g id="Layer_2" data-name="Layer 2"><g id="Capa_1" data-name="Capa 1"><path class="cls-1" d="M284.47,19.59h-4.16V.85q4-.15,5-.15a8.75,8.75,0,0,1,6.5,2.41,8.6,8.6,0,0,1,2.4,6.37Q294.22,19.59,284.47,19.59Zm-.83-15.84V16.56c.54.05,1.12.07,1.74.07a4.72,4.72,0,0,0,3.95-1.83,8.08,8.08,0,0,0,1.43-5.12q0-6-5.59-6Q284.63,3.66,283.64,3.75Z"/><path class="cls-1" d="M309.22,13.72h-9.8a3.43,3.43,0,0,0,1.13,2.54,4.06,4.06,0,0,0,2.79.91A4.51,4.51,0,0,0,306.67,16l1.24,2.45a7.92,7.92,0,0,1-5.05,1.37,6.66,6.66,0,0,1-5-1.84,7,7,0,0,1-1.82-5.13,7.09,7.09,0,0,1,2-5.25,7,7,0,0,1,9.6-.23,6.12,6.12,0,0,1,1.8,4.54A8.81,8.81,0,0,1,309.22,13.72Zm-9.69-2.41h6.74a3,3,0,0,0-3.33-3C301.11,8.3,300,9.3,299.53,11.31Z"/><path class="cls-1" d="M311.2,18.71l1.14-2.55a5.09,5.09,0,0,0,3.24,1.14c1.25,0,1.87-.44,1.87-1.33a1.64,1.64,0,0,0-.56-1.28,8.78,8.78,0,0,0-2.19-1.18c-2.37-1-3.55-2.36-3.55-4.12a3.25,3.25,0,0,1,1.36-2.78,5.73,5.73,0,0,1,3.47-1,8.76,8.76,0,0,1,4,1l-.92,2.49a4.36,4.36,0,0,0-2.92-.9c-1.12,0-1.68.44-1.68,1.33a1.19,1.19,0,0,0,.55.95,11.27,11.27,0,0,0,2.36,1.13,6.08,6.08,0,0,1,2.6,1.73,3.88,3.88,0,0,1,.79,2.44,3.57,3.57,0,0,1-1.42,3,6.11,6.11,0,0,1-3.84,1.1,9.15,9.15,0,0,1-2.2-.22A10.9,10.9,0,0,1,311.2,18.71Z"/><path class="cls-1" d="M332.16,19.59v-.83a3.13,3.13,0,0,1-1.34.76,5.93,5.93,0,0,1-2,.33A5.77,5.77,0,0,1,324.35,18,7.26,7.26,0,0,1,322.7,13a7.51,7.51,0,0,1,1.89-5.3,6.18,6.18,0,0,1,4.73-2,6.34,6.34,0,0,1,2.84.64V.77L335.37,0V19.59Zm0-10.43A3.34,3.34,0,0,0,330,8.34a3.75,3.75,0,0,0-3,1.17,4.91,4.91,0,0,0-1,3.36q0,4.28,4.12,4.28a3,3,0,0,0,1.14-.28,2,2,0,0,0,.87-.55Z"/><path class="cls-1" d="M350.81,13.72H341a3.46,3.46,0,0,0,1.13,2.54,4.06,4.06,0,0,0,2.79.91A4.51,4.51,0,0,0,348.26,16l1.24,2.45a7.89,7.89,0,0,1-5,1.37,6.65,6.65,0,0,1-5-1.84,6.94,6.94,0,0,1-1.83-5.13,7.1,7.1,0,0,1,2-5.25,7,7,0,0,1,9.59-.23,6.09,6.09,0,0,1,1.81,4.54A9,9,0,0,1,350.81,13.72Zm-9.68-2.41h6.73a3,3,0,0,0-3.32-3Q341.79,8.3,341.13,11.31Z"/><path class="cls-1" d="M367.1,19.59V6.07l-3.82,2.29V5.16A16.87,16.87,0,0,0,369.1.76h1.33V19.59Z"/><path class="cls-1" d="M381,20l-1.77-1.87a12.38,12.38,0,0,0,5.51-5.62,5.31,5.31,0,0,1-2.19.38,5.69,5.69,0,0,1-4.25-1.63,6.07,6.07,0,0,1-1.61-4.46,6.27,6.27,0,0,1,1.65-4.52A5.5,5.5,0,0,1,382.47.5Q389,.5,389,8.75a11.85,11.85,0,0,1-2.53,6.94Q384,19.22,381,20Zm-.92-13.33a3.87,3.87,0,0,0,.74,2.49,2.36,2.36,0,0,0,1.9.9c1.91,0,2.87-1.06,2.87-3.2q0-3.48-2.91-3.48a2.31,2.31,0,0,0-1.9.88A3.74,3.74,0,0,0,380.06,6.62Z"/><path class="cls-1" d="M395.06,9.32a5.29,5.29,0,0,1-1.68-1.83,4.52,4.52,0,0,1-.66-2.28,4.23,4.23,0,0,1,1.54-3.44,6.84,6.84,0,0,1,7.94,0,4.35,4.35,0,0,1,1.45,3.45,4.56,4.56,0,0,1-.81,2.42,5,5,0,0,1-1.77,1.79,5.74,5.74,0,0,1,2.25,2,4.89,4.89,0,0,1,1,2.77,5.26,5.26,0,0,1-1.67,4.14,6.64,6.64,0,0,1-4.56,1.48,6.38,6.38,0,0,1-4.49-1.45,5.33,5.33,0,0,1-1.58-4.17,5.3,5.3,0,0,1,.83-2.77A6.29,6.29,0,0,1,395.06,9.32Zm2.76,1.35a4.06,4.06,0,0,0-2.44,3.56,2.77,2.77,0,0,0,.76,2,2.64,2.64,0,0,0,2,.79,3.07,3.07,0,0,0,2.09-.7,2.3,2.3,0,0,0,.81-1.84C401,13.19,400,11.91,397.82,10.67ZM398.49,8a3,3,0,0,0,1.27-1.23,3.32,3.32,0,0,0,.55-1.64,1.67,1.67,0,0,0-.59-1.34,2.3,2.3,0,0,0-1.54-.5q-2.13,0-2.13,1.86a2.5,2.5,0,0,0,.79,1.67A4.34,4.34,0,0,0,398.49,8Z"/><path class="cls-1" d="M408,18.17l1.32-2.74A6.09,6.09,0,0,0,412.84,17q3.23,0,3.23-4a4.33,4.33,0,0,0-.73-2.79,3,3,0,0,0-2.45-.87,4.22,4.22,0,0,0-3,1.52l-1.32-.86V.76h10.11V3.59h-6.91V6.94a4.84,4.84,0,0,1,2-.38A5.54,5.54,0,0,1,418,8.16a6.41,6.41,0,0,1,1.49,4.53q0,7.16-6.67,7.16A7.4,7.4,0,0,1,408,18.17Z"/><line class="cls-2" x1="419.46" y1="26.27" x2="140.28" y2="26.27"/><path class="cls-1" d="M4.3,168.42v6.81H1V156.74c2.19-.1,3.46-.14,3.83-.14q4.37,0,6.39,1.34a4.69,4.69,0,0,1,2,4.2q0,6.38-7.48,6.37C5.41,168.51,4.92,168.48,4.3,168.42Zm0-8.84v5.92a12.81,12.81,0,0,0,1.31.09,5.64,5.64,0,0,0,3.27-.75,2.8,2.8,0,0,0,1-2.44q0-2.88-4.62-2.88A8,8,0,0,0,4.3,159.58Z"/><path class="cls-1" d="M19.43,159.64V164h6.09v2.79H19.43v5.55h8.36v2.91H16.15v-18.5H27.92v2.91Z"/><path class="cls-1" d="M41.22,175.23l-4.92-7.64c-.5,0-1.19,0-2.08-.09v7.73h-3.4v-18.5l2.13-.1c1.23-.06,2.23-.09,3-.09q7,0,7,5.45a5.07,5.07,0,0,1-1,3,5.23,5.23,0,0,1-2.45,1.9L45,175.23Zm-7-15.65v5.14c.6.05,1.07.08,1.38.08a6.07,6.07,0,0,0,3-.58,2.45,2.45,0,0,0,1-2.26,2,2,0,0,0-1-1.91,7.17,7.17,0,0,0-3.21-.55A8.66,8.66,0,0,0,34.22,159.58Z"/><path class="cls-1" d="M45.69,174.21l1.21-2.94a6.6,6.6,0,0,0,3.81,1.36c1.92,0,2.88-.67,2.88-2a2.86,2.86,0,0,0-.68-1.81,8.62,8.62,0,0,0-2.8-1.92,14.16,14.16,0,0,1-2.86-1.76,4.72,4.72,0,0,1-1.13-1.64,5.44,5.44,0,0,1-.4-2.09,4.64,4.64,0,0,1,1.57-3.57,5.8,5.8,0,0,1,4-1.41,7.48,7.48,0,0,1,4.7,1.2l-1,2.83a6.13,6.13,0,0,0-3.64-1.24,2.44,2.44,0,0,0-1.76.6,2.09,2.09,0,0,0-.62,1.56c0,1.06,1.17,2.17,3.51,3.31a11.74,11.74,0,0,1,2.67,1.68,5.27,5.27,0,0,1,1.25,1.78,5.83,5.83,0,0,1,.42,2.26,4.6,4.6,0,0,1-1.77,3.71,7.2,7.2,0,0,1-4.74,1.45A8.4,8.4,0,0,1,45.69,174.21Z"/><path class="cls-1" d="M58.87,165.82A10.49,10.49,0,0,1,61,159.13a7,7,0,0,1,5.77-2.73,7.53,7.53,0,0,1,6.08,2.47,10.43,10.43,0,0,1,2.1,6.95,10.69,10.69,0,0,1-2.2,7.1,7.67,7.67,0,0,1-6.23,2.63,6.74,6.74,0,0,1-5.7-2.6A11.52,11.52,0,0,1,58.87,165.82Zm3.4,0a9.63,9.63,0,0,0,1.09,5,3.51,3.51,0,0,0,3.19,1.78,4.37,4.37,0,0,0,3.74-1.74,8.43,8.43,0,0,0,1.29-5.07q0-6.51-4.78-6.51a3.79,3.79,0,0,0-3.36,1.77A8.44,8.44,0,0,0,62.27,165.82Z"/><path class="cls-1" d="M90,175.49l-9-11.72v11.48H77.88V156.73h1.57l8.71,11.16V156.73h3.15v18.76Z"/><path class="cls-1" d="M105.85,175.23l-1.35-3.75H98.18l-1.28,3.75H93.26l7.35-18.76h1.44l7.41,18.76Zm-4.52-13.1L99.11,169h4.43Z"/><path class="cls-1" d="M111.41,175.23v-18.5h3.27v15.59H123v2.91Z"/><path class="cls-1" d="M140,159.64v15.59H136.7V159.64h-5.86v-2.91h15.27v2.91Z"/><path class="cls-1" d="M151.52,159.64V164h6.09v2.79h-6.09v5.55h8.36v2.91H148.25v-18.5H160v2.91Z"/><path class="cls-1" d="M180.11,175.25h-3.17l-1.92-10-3.71,10.23h-1.17l-3.71-10.23-2,10h-3.16L165,156.73h1.74l4,12.46,3.9-12.46h1.72Z"/><path class="cls-1" d="M185.4,168.42v6.81h-3.28V156.74c2.18-.1,3.46-.14,3.83-.14q4.37,0,6.39,1.34a4.71,4.71,0,0,1,2,4.2q0,6.38-7.48,6.37C186.51,168.51,186,168.48,185.4,168.42Zm0-8.84v5.92a12.83,12.83,0,0,0,1.3.09,5.65,5.65,0,0,0,3.28-.75,2.8,2.8,0,0,0,1-2.44q0-2.88-4.62-2.88A7.86,7.86,0,0,0,185.4,159.58Z"/><path class="cls-1" d="M196.37,165.82a10.49,10.49,0,0,1,2.16-6.69,7,7,0,0,1,5.77-2.73,7.52,7.52,0,0,1,6.08,2.47,10.44,10.44,0,0,1,2.11,6.95,10.75,10.75,0,0,1-2.2,7.1,7.69,7.69,0,0,1-6.24,2.63,6.74,6.74,0,0,1-5.69-2.6A11.46,11.46,0,0,1,196.37,165.82Zm3.4,0a9.63,9.63,0,0,0,1.1,5,3.51,3.51,0,0,0,3.18,1.78,4.38,4.38,0,0,0,3.75-1.74,8.43,8.43,0,0,0,1.29-5.07q0-6.51-4.79-6.51a3.79,3.79,0,0,0-3.36,1.77A8.44,8.44,0,0,0,199.77,165.82Z"/><path class="cls-1" d="M225.78,175.23l-4.92-7.64c-.5,0-1.19,0-2.08-.09v7.73h-3.4v-18.5l2.13-.1c1.23-.06,2.23-.09,3-.09q7,0,7,5.45a5.07,5.07,0,0,1-1,3,5.25,5.25,0,0,1-2.44,1.9l5.45,8.34Zm-7-15.65v5.14c.6.05,1.07.08,1.38.08a6.07,6.07,0,0,0,3-.58,2.45,2.45,0,0,0,1-2.26,2,2,0,0,0-1-1.91,7.17,7.17,0,0,0-3.21-.55A8.79,8.79,0,0,0,218.78,159.58Z"/><path class="cls-1" d="M241.89,175.23l-1.35-3.75h-6.31l-1.29,3.75H229.3l7.35-18.76h1.44l7.41,18.76Zm-4.52-13.1L235.16,169h4.43Z"/><path class="cls-1" d="M247.46,175.23v-18.5h3.27v15.59h8.33v2.91Z"/><path class="cls-1" d="M268.91,161a3.48,3.48,0,0,1,1.37-2.84,5.48,5.48,0,0,1,3.55-1.1,6.05,6.05,0,0,1,3.63.94,3.09,3.09,0,0,1,1.3,2.63,4.27,4.27,0,0,1-1.29,2.92,9,9,0,0,1-2.33,1.79l4.4,4.45a6.88,6.88,0,0,0,.24-1,18.16,18.16,0,0,0,.17-3.5h3a14.61,14.61,0,0,1-.41,4.28,7.34,7.34,0,0,1-1,2.19l3.37,3.42h-4.05l-1.41-1.43a10.37,10.37,0,0,1-1.53.74,10.88,10.88,0,0,1-3.9.69,7.5,7.5,0,0,1-4.81-1.46,4.6,4.6,0,0,1-1.85-3.79,4.7,4.7,0,0,1,1.26-3.06A9.17,9.17,0,0,1,271,165a13.11,13.11,0,0,1-1.12-1.52A5,5,0,0,1,268.91,161Zm5.64,11.91a5.4,5.4,0,0,0,2.33-.55,8.2,8.2,0,0,0,.76-.43l-5.07-5.17a7.51,7.51,0,0,0-1,.87,2.94,2.94,0,0,0-.83,1.95,3.1,3.1,0,0,0,1,2.46A4.09,4.09,0,0,0,274.55,172.93ZM272,161a3,3,0,0,0,.63,1.48,12.76,12.76,0,0,0,1,1.26,8.71,8.71,0,0,0,1.25-1,2.71,2.71,0,0,0,1-1.9,1.39,1.39,0,0,0-.5-1.13,2.17,2.17,0,0,0-1.41-.41,2.06,2.06,0,0,0-1.4.44A1.52,1.52,0,0,0,272,161Z"/><path class="cls-1" d="M304.63,175.23l-1.35-3.75H297l-1.28,3.75H292l7.35-18.76h1.44l7.41,18.76Zm-4.52-13.1L297.89,169h4.43Z"/><path class="cls-1" d="M309.31,174.21l1.21-2.94a6.6,6.6,0,0,0,3.81,1.36c1.93,0,2.89-.67,2.89-2a2.92,2.92,0,0,0-.68-1.81,8.86,8.86,0,0,0-2.8-1.92,13.58,13.58,0,0,1-2.86-1.76,4.59,4.59,0,0,1-1.13-1.64,5.26,5.26,0,0,1-.4-2.09,4.61,4.61,0,0,1,1.57-3.57,5.77,5.77,0,0,1,4-1.41,7.47,7.47,0,0,1,4.69,1.2l-1,2.83A6.11,6.11,0,0,0,315,159.2a2.41,2.41,0,0,0-1.75.6,2.06,2.06,0,0,0-.63,1.56c0,1.06,1.17,2.17,3.51,3.31a11.3,11.3,0,0,1,2.67,1.68,5.14,5.14,0,0,1,1.25,1.78,5.84,5.84,0,0,1,.43,2.26,4.6,4.6,0,0,1-1.77,3.71,7.23,7.23,0,0,1-4.74,1.45A8.46,8.46,0,0,1,309.31,174.21Z"/><path class="cls-1" d="M326.64,159.64V164h6.1v2.79h-6.1v5.55H335v2.91H323.37v-18.5h11.77v2.91Z"/><path class="cls-1" d="M337.16,174.21l1.2-2.94a6.65,6.65,0,0,0,3.82,1.36c1.92,0,2.88-.67,2.88-2a2.86,2.86,0,0,0-.68-1.81,8.62,8.62,0,0,0-2.8-1.92,13.86,13.86,0,0,1-2.86-1.76,4.59,4.59,0,0,1-1.13-1.64,5.44,5.44,0,0,1-.4-2.09,4.64,4.64,0,0,1,1.57-3.57,5.8,5.8,0,0,1,4-1.41,7.5,7.5,0,0,1,4.7,1.2l-1,2.83a6.1,6.1,0,0,0-3.63-1.24,2.44,2.44,0,0,0-1.76.6,2,2,0,0,0-.62,1.56c0,1.06,1.17,2.17,3.51,3.31a11.74,11.74,0,0,1,2.67,1.68,5.11,5.11,0,0,1,1.24,1.78,5.66,5.66,0,0,1,.43,2.26,4.6,4.6,0,0,1-1.77,3.71,7.23,7.23,0,0,1-4.74,1.45A8.4,8.4,0,0,1,337.16,174.21Z"/><path class="cls-1" d="M350.34,165.82a10.49,10.49,0,0,1,2.16-6.69,7,7,0,0,1,5.77-2.73,7.53,7.53,0,0,1,6.08,2.47,10.43,10.43,0,0,1,2.1,6.95,10.69,10.69,0,0,1-2.2,7.1,7.67,7.67,0,0,1-6.23,2.63,6.74,6.74,0,0,1-5.7-2.6A11.52,11.52,0,0,1,350.34,165.82Zm3.4,0a9.63,9.63,0,0,0,1.09,5,3.51,3.51,0,0,0,3.19,1.78,4.37,4.37,0,0,0,3.74-1.74,8.43,8.43,0,0,0,1.29-5.07q0-6.51-4.78-6.51a3.79,3.79,0,0,0-3.36,1.77A8.44,8.44,0,0,0,353.74,165.82Z"/><path class="cls-1" d="M379.74,175.23l-4.92-7.64c-.49,0-1.19,0-2.08-.09v7.73h-3.4v-18.5l2.13-.1c1.24-.06,2.23-.09,3-.09q7,0,7,5.45a5,5,0,0,1-1,3,5.25,5.25,0,0,1-2.44,1.9l5.45,8.34Zm-7-15.65v5.14c.61.05,1.07.08,1.39.08a6,6,0,0,0,3-.58,2.45,2.45,0,0,0,.95-2.26,2,2,0,0,0-1-1.91,7.17,7.17,0,0,0-3.21-.55A8.79,8.79,0,0,0,372.74,159.58Z"/><path class="cls-1" d="M390.39,151.51l-2.84,3.7h-2.39l2.12-3.7Zm-5.23,23.72v-18.5h3.27v18.5Z"/><path class="cls-1" d="M403,175.23l-1.35-3.75h-6.31l-1.29,3.75h-3.64l7.35-18.76h1.44l7.41,18.76Zm-4.52-13.1L396.3,169h4.43Z"/><path class="cls-1" d="M407.71,174.21l1.21-2.94a6.63,6.63,0,0,0,3.82,1.36c1.92,0,2.88-.67,2.88-2a2.92,2.92,0,0,0-.68-1.81,8.74,8.74,0,0,0-2.8-1.92,13.58,13.58,0,0,1-2.86-1.76,4.59,4.59,0,0,1-1.13-1.64,5.26,5.26,0,0,1-.4-2.09,4.61,4.61,0,0,1,1.57-3.57,5.77,5.77,0,0,1,4-1.41,7.5,7.5,0,0,1,4.7,1.2l-1,2.83a6.11,6.11,0,0,0-3.64-1.24,2.41,2.41,0,0,0-1.75.6,2.06,2.06,0,0,0-.63,1.56c0,1.06,1.18,2.17,3.52,3.31a11.74,11.74,0,0,1,2.67,1.68,5.11,5.11,0,0,1,1.24,1.78,5.66,5.66,0,0,1,.43,2.26,4.6,4.6,0,0,1-1.77,3.71,7.23,7.23,0,0,1-4.74,1.45A8.46,8.46,0,0,1,407.71,174.21Z"/><path class="cls-1" d="M268.9,35.36h-118c-5.89,0-10.66,4.41-10.66,9.85s4.77,9.84,10.66,9.84h38a20.84,20.84,0,0,0-.66,5.21v58.86a21.69,21.69,0,0,0,43.36,0V60.26a20.84,20.84,0,0,0-.66-5.21h38c5.88,0,10.66-4.4,10.66-9.84s-4.78-9.85-10.66-9.85"/><path class="cls-1" d="M140.74,74.73V65.32c0-16.14-14-29.23-32.57-29.23H34C17.43,36.09,3.63,46.54.88,60.28A19,19,0,0,0,0,66v54.27c0,11.31,9.87,20.48,22.05,20.48S43.52,133,43.52,121.64V111.47h-.39L43,67.57c0-7.61-2.85-14,11.28-14H83.59c14.37-.34,15,4.55,15,13.79V71.1c0,8.46-.67,14.12-15,13.79H72.87V85H65.61a9.48,9.48,0,0,0,0,19H93l1.49,0c33,0,47.31-17,46.27-29.22"/><path class="cls-1" d="M418.68,56.61c-3.05-12.07-14.38-21.07-33.29-21.07H303.9c-5.38,0-9.75,4.63-9.75,10.33s4.37,9.48,9.75,9.48H368s8.5.13,8.5,6.69V72h-67.6c-16.28,0-29.47,12.16-29.47,27.16v14.08c0,15,18.33,27.17,44.36,27.17l27.37-.07c5.61,0,12.52-4.25,12.52-9.5s-4.73-9.5-11.18-9.5l-16.72,0c-11,0-14.93-2.46-14.93-13.1v-5.45c0-7.24.48-13.1,14.93-13.1H362.1c15.48,0,15,1.45,14.94,11.68,0,.1,0,21.71,0,21.71,0,7.5,5.55,16.44,16.3,16.44,0,0,9.21-.12,10.24-.33,12.15-1.74,15.88-9.43,15.88-19.09v-59a13.38,13.38,0,0,0-.78-4.47"/></g></g></svg>