<svg id="Capa_1" data-name="Capa 1" xmlns="http://www.w3.org/2000/svg" viewBox="0 0 425.2 198.43"><defs><style>.cls-1{fill:#2a206f;}.cls-2{fill:none;stroke:#302779;stroke-miterlimit:10;stroke-width:0.5px;}</style></defs><title>Mesa de trabajo 1</title><path class="cls-1" d="M287.31,31h-4.16V12.28c2.65-.09,4.32-.14,5-.14a8.77,8.77,0,0,1,6.5,2.4,8.62,8.62,0,0,1,2.4,6.37Q297.05,31,287.31,31Zm-.83-15.84V28c.53.05,1.12.07,1.74.07a4.73,4.73,0,0,0,3.95-1.83,8.16,8.16,0,0,0,1.43-5.12q0-6-5.6-6C287.64,15.1,287.13,15.13,286.48,15.19Z"/><path class="cls-1" d="M312.05,25.15h-9.8a3.47,3.47,0,0,0,1.13,2.55,4.06,4.06,0,0,0,2.79.91,4.51,4.51,0,0,0,3.33-1.14l1.24,2.45a7.87,7.87,0,0,1-5,1.37,6.69,6.69,0,0,1-5-1.84,7,7,0,0,1-1.83-5.13,7.1,7.1,0,0,1,2-5.25,7,7,0,0,1,9.59-.23,6.08,6.08,0,0,1,1.81,4.53A8.8,8.8,0,0,1,312.05,25.15Zm-9.68-2.4h6.73a3,3,0,0,0-3.32-3Q303,19.74,302.37,22.75Z"/><path class="cls-1" d="M314,30.15l1.13-2.55a5.09,5.09,0,0,0,3.24,1.14c1.25,0,1.87-.45,1.87-1.33a1.61,1.61,0,0,0-.56-1.28A8.12,8.12,0,0,0,317.53,25c-2.36-1-3.55-2.36-3.55-4.13a3.25,3.25,0,0,1,1.36-2.77,5.75,5.75,0,0,1,3.47-1,8.7,8.7,0,0,1,4,1l-.92,2.48a4.39,4.39,0,0,0-2.92-.89c-1.12,0-1.68.44-1.68,1.33a1.22,1.22,0,0,0,.55.95A11.55,11.55,0,0,0,320.22,23a6.07,6.07,0,0,1,2.6,1.72,3.85,3.85,0,0,1,.79,2.45,3.59,3.59,0,0,1-1.41,3,6.14,6.14,0,0,1-3.85,1.1,8.71,8.71,0,0,1-2.2-.23A10.71,10.71,0,0,1,314,30.15Z"/><path class="cls-1" d="M335,31V30.2a3.28,3.28,0,0,1-1.35.76,5.89,5.89,0,0,1-2,.33,5.79,5.79,0,0,1-4.51-1.82,7.26,7.26,0,0,1-1.64-5.07,7.49,7.49,0,0,1,1.88-5.3A6.56,6.56,0,0,1,335,17.7V12.21l3.2-.77V31Zm0-10.44a3.42,3.42,0,0,0-2.14-.82,3.75,3.75,0,0,0-3,1.18,4.91,4.91,0,0,0-1,3.36q0,4.28,4.13,4.28a3.19,3.19,0,0,0,1.13-.28,2,2,0,0,0,.88-.56Z"/><path class="cls-1" d="M353.64,25.15h-9.79A3.43,3.43,0,0,0,345,27.7a4.06,4.06,0,0,0,2.79.91,4.51,4.51,0,0,0,3.33-1.14l1.24,2.45a7.92,7.92,0,0,1-5,1.37,6.7,6.7,0,0,1-5-1.84,7,7,0,0,1-1.82-5.13,7.09,7.09,0,0,1,2-5.25,7,7,0,0,1,9.6-.23,6.11,6.11,0,0,1,1.8,4.53A8.8,8.8,0,0,1,353.64,25.15ZM344,22.75h6.74a3,3,0,0,0-3.33-3C345.54,19.74,344.41,20.74,344,22.75Z"/><path class="cls-1" d="M369.93,31V17.51l-3.81,2.29V16.6a16.75,16.75,0,0,0,5.81-4.41h1.33V31Z"/><path class="cls-1" d="M383.82,31.39l-1.77-1.87a12.49,12.49,0,0,0,5.51-5.62,5.55,5.55,0,0,1-2.19.38,5.7,5.7,0,0,1-4.26-1.64,6.09,6.09,0,0,1-1.61-4.45,6.27,6.27,0,0,1,1.65-4.52,5.48,5.48,0,0,1,4.15-1.73q6.56,0,6.56,8.24a11.86,11.86,0,0,1-2.53,7C387.64,29.48,385.81,30.89,383.82,31.39Zm-.93-13.33a3.77,3.77,0,0,0,.75,2.48,2.31,2.31,0,0,0,1.89.91q2.87,0,2.87-3.2,0-3.48-2.91-3.48a2.31,2.31,0,0,0-1.89.87A3.77,3.77,0,0,0,382.89,18.06Z"/><path class="cls-1" d="M397.89,20.76a5.49,5.49,0,0,1-1.68-1.83,4.6,4.6,0,0,1-.65-2.28,4.25,4.25,0,0,1,1.53-3.44,6.85,6.85,0,0,1,8,0,4.37,4.37,0,0,1,1.44,3.45,4.62,4.62,0,0,1-.8,2.42,4.92,4.92,0,0,1-1.77,1.78,5.92,5.92,0,0,1,2.25,2,4.94,4.94,0,0,1,1,2.77,5.24,5.24,0,0,1-1.68,4.14A6.69,6.69,0,0,1,401,31.29a6.4,6.4,0,0,1-4.49-1.45,5.38,5.38,0,0,1-1.58-4.17,5.2,5.2,0,0,1,.84-2.77A6.17,6.17,0,0,1,397.89,20.76Zm2.77,1.35a4.06,4.06,0,0,0-2.45,3.56,2.75,2.75,0,0,0,.76,2,2.63,2.63,0,0,0,2,.8,3.12,3.12,0,0,0,2.09-.7,2.3,2.3,0,0,0,.82-1.84Q403.86,24,400.66,22.11Zm.66-2.63a3,3,0,0,0,1.27-1.24,3.16,3.16,0,0,0,.55-1.63,1.66,1.66,0,0,0-.58-1.34,2.26,2.26,0,0,0-1.55-.5c-1.41,0-2.12.62-2.12,1.85a2.53,2.53,0,0,0,.78,1.68A4.45,4.45,0,0,0,401.32,19.48Z"/><path class="cls-1" d="M410.86,29.61l1.32-2.74a6.11,6.11,0,0,0,3.5,1.59c2.15,0,3.22-1.33,3.22-4a4.33,4.33,0,0,0-.73-2.79,3,3,0,0,0-2.44-.88,4.24,4.24,0,0,0-3,1.53l-1.32-.86v-9.3h10.1V15h-6.9v3.36a4.79,4.79,0,0,1,2-.39,5.52,5.52,0,0,1,4.26,1.61,6.39,6.39,0,0,1,1.49,4.53q0,7.15-6.67,7.16A7.44,7.44,0,0,1,410.86,29.61Z"/><line class="cls-2" x1="422.3" y1="37.71" x2="143.12" y2="37.71"/><path class="cls-1" d="M7.13,179.86v6.81H3.86v-18.5C6,168.08,7.32,168,7.69,168c2.91,0,5,.44,6.38,1.34a4.69,4.69,0,0,1,2,4.2q0,6.38-7.47,6.37C8.25,180,7.75,179.92,7.13,179.86Zm0-8.84v5.92a13,13,0,0,0,1.31.09,5.62,5.62,0,0,0,3.27-.75,2.83,2.83,0,0,0,1-2.45q0-2.88-4.62-2.88A8,8,0,0,0,7.13,171Z"/><path class="cls-1" d="M22.26,171.08v4.33h6.1v2.8h-6.1v5.54h8.36v2.92H19V168.16H30.76v2.92Z"/><path class="cls-1" d="M44.05,186.67,39.13,179c-.49,0-1.19,0-2.08-.09v7.73h-3.4V168.16l2.13-.09c1.24-.07,2.23-.1,3-.1q7,0,7,5.46a5,5,0,0,1-1,3,5.25,5.25,0,0,1-2.44,1.9l5.45,8.34Zm-7-15.65v5.14c.61.05,1.07.08,1.39.08a5.88,5.88,0,0,0,3-.59,2.44,2.44,0,0,0,1-2.26,2,2,0,0,0-1-1.9,7,7,0,0,0-3.21-.55A8.79,8.79,0,0,0,37.05,171Z"/><path class="cls-1" d="M48.52,185.65l1.21-3a6.62,6.62,0,0,0,3.81,1.37c1.93,0,2.89-.67,2.89-2a2.9,2.9,0,0,0-.68-1.81,9,9,0,0,0-2.8-1.93,13.24,13.24,0,0,1-2.86-1.75A4.68,4.68,0,0,1,49,174.92a5.28,5.28,0,0,1-.4-2.1,4.59,4.59,0,0,1,1.57-3.56,5.77,5.77,0,0,1,4-1.41,7.45,7.45,0,0,1,4.69,1.2l-1,2.83a6.11,6.11,0,0,0-3.64-1.24,2.41,2.41,0,0,0-1.75.6,2.06,2.06,0,0,0-.63,1.56q0,1.59,3.51,3.31A11.33,11.33,0,0,1,58,177.78a5.23,5.23,0,0,1,1.25,1.78,5.74,5.74,0,0,1,.43,2.27,4.57,4.57,0,0,1-1.77,3.7A7.24,7.24,0,0,1,53.18,187,8.46,8.46,0,0,1,48.52,185.65Z"/><path class="cls-1" d="M61.7,177.26a10.45,10.45,0,0,1,2.16-6.69,7,7,0,0,1,5.77-2.74,7.54,7.54,0,0,1,6.08,2.48,10.44,10.44,0,0,1,2.11,6.95,10.75,10.75,0,0,1-2.2,7.1A7.7,7.7,0,0,1,69.38,187a6.72,6.72,0,0,1-5.69-2.61A11.43,11.43,0,0,1,61.7,177.26Zm3.4,0a9.65,9.65,0,0,0,1.1,5,3.53,3.53,0,0,0,3.18,1.78,4.38,4.38,0,0,0,3.75-1.74,8.47,8.47,0,0,0,1.29-5.07q0-6.51-4.79-6.51a3.8,3.8,0,0,0-3.36,1.76A8.5,8.5,0,0,0,65.1,177.26Z"/><path class="cls-1" d="M92.81,186.92l-9-11.71v11.47H80.71V168.16h1.57L91,179.33V168.16h3.14v18.76Z"/><path class="cls-1" d="M108.68,186.67l-1.35-3.75H101l-1.29,3.75H96.09l7.35-18.76h1.44l7.41,18.76Zm-4.52-13.1L102,180.41h4.43Z"/><path class="cls-1" d="M114.25,186.67V168.16h3.27v15.59h8.33v2.92Z"/><path class="cls-1" d="M142.81,171.08v15.59h-3.27V171.08h-5.87v-2.92h15.27v2.92Z"/><path class="cls-1" d="M154.36,171.08v4.33h6.09v2.8h-6.09v5.54h8.35v2.92H151.08V168.16h11.77v2.92Z"/><path class="cls-1" d="M182.94,186.68h-3.17l-1.91-10-3.72,10.22H173l-3.71-10.22-2,10h-3.16l3.71-18.52h1.74l4,12.47,3.91-12.47h1.72Z"/><path class="cls-1" d="M188.23,179.86v6.81H185v-18.5c2.18-.09,3.45-.13,3.82-.13,2.92,0,5.05.44,6.39,1.34a4.69,4.69,0,0,1,2,4.2q0,6.38-7.47,6.37C189.35,180,188.85,179.92,188.23,179.86Zm0-8.84v5.92a12.81,12.81,0,0,0,1.31.09,5.64,5.64,0,0,0,3.27-.75,2.82,2.82,0,0,0,1-2.45q0-2.88-4.62-2.88A8,8,0,0,0,188.23,171Z"/><path class="cls-1" d="M199.21,177.26a10.45,10.45,0,0,1,2.16-6.69,7,7,0,0,1,5.77-2.74,7.54,7.54,0,0,1,6.08,2.48,10.43,10.43,0,0,1,2.1,6.95,10.69,10.69,0,0,1-2.2,7.1,7.67,7.67,0,0,1-6.23,2.63,6.72,6.72,0,0,1-5.7-2.61A11.49,11.49,0,0,1,199.21,177.26Zm3.4,0a9.66,9.66,0,0,0,1.09,5,3.53,3.53,0,0,0,3.19,1.78,4.37,4.37,0,0,0,3.74-1.74,8.47,8.47,0,0,0,1.29-5.07q0-6.51-4.78-6.51a3.8,3.8,0,0,0-3.36,1.76A8.5,8.5,0,0,0,202.61,177.26Z"/><path class="cls-1" d="M228.61,186.67,223.69,179c-.49,0-1.19,0-2.08-.09v7.73h-3.39V168.16l2.12-.09c1.24-.07,2.23-.1,3-.1q7,0,7,5.46a5,5,0,0,1-1,3,5.2,5.2,0,0,1-2.44,1.9l5.45,8.34Zm-7-15.65v5.14c.61.05,1.07.08,1.39.08a5.88,5.88,0,0,0,3-.59,2.41,2.41,0,0,0,.95-2.26,2,2,0,0,0-1-1.9,7,7,0,0,0-3.21-.55A8.79,8.79,0,0,0,221.61,171Z"/><path class="cls-1" d="M244.73,186.67l-1.35-3.75h-6.32l-1.28,3.75h-3.64l7.35-18.76h1.44l7.41,18.76Zm-4.52-13.1L238,180.41h4.43Z"/><path class="cls-1" d="M250.29,186.67V168.16h3.27v15.59h8.34v2.92Z"/><path class="cls-1" d="M271.75,172.46a3.45,3.45,0,0,1,1.37-2.84,5.46,5.46,0,0,1,3.55-1.1,6,6,0,0,1,3.62.94,3,3,0,0,1,1.3,2.63,4.32,4.32,0,0,1-1.28,2.92,9.11,9.11,0,0,1-2.33,1.78l4.39,4.46a6.88,6.88,0,0,0,.24-1,18.06,18.06,0,0,0,.18-3.5h3a14.24,14.24,0,0,1-.42,4.28,7,7,0,0,1-1,2.18l3.37,3.43h-4.05l-1.41-1.44a9.35,9.35,0,0,1-1.52.75,10.9,10.9,0,0,1-3.91.69,7.51,7.51,0,0,1-4.81-1.46,4.6,4.6,0,0,1-.59-6.85,9.23,9.23,0,0,1,2.36-1.92,12.81,12.81,0,0,1-1.12-1.52A4.89,4.89,0,0,1,271.75,172.46Zm5.64,11.91a5.43,5.43,0,0,0,2.33-.55,6.93,6.93,0,0,0,.75-.43l-5.06-5.17a6.4,6.4,0,0,0-1,.87,2.87,2.87,0,0,0-.83,1.95,3.13,3.13,0,0,0,1,2.46A4.14,4.14,0,0,0,277.39,184.37Zm-2.58-11.92a3,3,0,0,0,.62,1.47,13,13,0,0,0,1,1.27,9.31,9.31,0,0,0,1.25-1,2.72,2.72,0,0,0,.94-1.9,1.36,1.36,0,0,0-.5-1.13,2.16,2.16,0,0,0-1.4-.41,2.11,2.11,0,0,0-1.41.44A1.5,1.5,0,0,0,274.81,172.45Z"/><path class="cls-1" d="M307.46,186.67l-1.34-3.75H299.8l-1.29,3.75h-3.64l7.36-18.76h1.43l7.42,18.76Zm-4.52-13.1-2.21,6.84h4.43Z"/><path class="cls-1" d="M312.15,185.65l1.2-3a6.67,6.67,0,0,0,3.82,1.37c1.92,0,2.88-.67,2.88-2a2.9,2.9,0,0,0-.68-1.81,8.89,8.89,0,0,0-2.8-1.93,13.5,13.5,0,0,1-2.86-1.75,4.68,4.68,0,0,1-1.13-1.64,5.46,5.46,0,0,1-.4-2.1,4.62,4.62,0,0,1,1.57-3.56,5.8,5.8,0,0,1,4-1.41,7.5,7.5,0,0,1,4.7,1.2l-1,2.83a6.1,6.1,0,0,0-3.63-1.24,2.44,2.44,0,0,0-1.76.6,2,2,0,0,0-.62,1.56q0,1.59,3.51,3.31a11.77,11.77,0,0,1,2.67,1.67,5.2,5.2,0,0,1,1.24,1.78,5.74,5.74,0,0,1,.43,2.27,4.57,4.57,0,0,1-1.77,3.7A7.24,7.24,0,0,1,316.8,187,8.4,8.4,0,0,1,312.15,185.65Z"/><path class="cls-1" d="M329.48,171.08v4.33h6.09v2.8h-6.09v5.54h8.36v2.92H326.21V168.16H338v2.92Z"/><path class="cls-1" d="M340,185.65l1.21-3a6.62,6.62,0,0,0,3.81,1.37c1.93,0,2.89-.67,2.89-2a2.9,2.9,0,0,0-.68-1.81,9,9,0,0,0-2.8-1.93,13.24,13.24,0,0,1-2.86-1.75,4.68,4.68,0,0,1-1.13-1.64,5.28,5.28,0,0,1-.4-2.1,4.59,4.59,0,0,1,1.57-3.56,5.77,5.77,0,0,1,4-1.41,7.47,7.47,0,0,1,4.69,1.2l-1,2.83a6.11,6.11,0,0,0-3.64-1.24,2.45,2.45,0,0,0-1.76.6,2.09,2.09,0,0,0-.62,1.56q0,1.59,3.51,3.31a11.33,11.33,0,0,1,2.67,1.67,5.23,5.23,0,0,1,1.25,1.78,5.92,5.92,0,0,1,.43,2.27,4.57,4.57,0,0,1-1.77,3.7,7.24,7.24,0,0,1-4.74,1.46A8.46,8.46,0,0,1,340,185.65Z"/><path class="cls-1" d="M353.17,177.26a10.45,10.45,0,0,1,2.16-6.69,7,7,0,0,1,5.77-2.74,7.54,7.54,0,0,1,6.08,2.48,10.43,10.43,0,0,1,2.1,6.95,10.74,10.74,0,0,1-2.19,7.1,7.7,7.7,0,0,1-6.24,2.63,6.74,6.74,0,0,1-5.7-2.61A11.49,11.49,0,0,1,353.17,177.26Zm3.4,0a9.65,9.65,0,0,0,1.1,5,3.53,3.53,0,0,0,3.18,1.78,4.36,4.36,0,0,0,3.74-1.74,8.4,8.4,0,0,0,1.3-5.07q0-6.51-4.79-6.51a3.8,3.8,0,0,0-3.36,1.76A8.5,8.5,0,0,0,356.57,177.26Z"/><path class="cls-1" d="M382.58,186.67,377.66,179c-.5,0-1.19,0-2.08-.09v7.73h-3.4V168.16l2.13-.09c1.23-.07,2.23-.1,3-.1q7,0,7,5.46a5.08,5.08,0,0,1-1,3,5.23,5.23,0,0,1-2.45,1.9l5.45,8.34Zm-7-15.65v5.14c.6.05,1.06.08,1.38.08a6,6,0,0,0,3-.59,2.44,2.44,0,0,0,.95-2.26,2,2,0,0,0-1-1.9,7,7,0,0,0-3.21-.55A8.53,8.53,0,0,0,375.58,171Z"/><path class="cls-1" d="M393.23,162.94l-2.85,3.71H388l2.13-3.71ZM388,186.67V168.16h3.27v18.51Z"/><path class="cls-1" d="M405.87,186.67l-1.35-3.75H398.2l-1.28,3.75h-3.64l7.35-18.76h1.43l7.42,18.76Zm-4.52-13.1-2.22,6.84h4.43Z"/><path class="cls-1" d="M410.55,185.65l1.21-3a6.62,6.62,0,0,0,3.81,1.37c1.92,0,2.88-.67,2.88-2a2.84,2.84,0,0,0-.68-1.81,8.77,8.77,0,0,0-2.8-1.93,13.36,13.36,0,0,1-2.85-1.75,4.84,4.84,0,0,1-1.14-1.64,5.46,5.46,0,0,1-.39-2.1,4.61,4.61,0,0,1,1.56-3.56,5.81,5.81,0,0,1,4-1.41,7.47,7.47,0,0,1,4.69,1.2l-1,2.83a6.13,6.13,0,0,0-3.64-1.24,2.44,2.44,0,0,0-1.76.6,2.09,2.09,0,0,0-.62,1.56q0,1.59,3.51,3.31a11.77,11.77,0,0,1,2.67,1.67,5.23,5.23,0,0,1,1.25,1.78,5.92,5.92,0,0,1,.42,2.27,4.58,4.58,0,0,1-1.76,3.7,7.24,7.24,0,0,1-4.74,1.46A8.43,8.43,0,0,1,410.55,185.65Z"/><path class="cls-1" d="M271.73,46.79h-118c-5.88,0-10.65,4.42-10.65,9.85s4.77,9.85,10.65,9.85h38a20.84,20.84,0,0,0-.66,5.21v58.86a21.69,21.69,0,0,0,43.36,0V71.7a20.84,20.84,0,0,0-.66-5.21h38c5.89,0,10.66-4.41,10.66-9.85s-4.77-9.85-10.66-9.85"/><path class="cls-1" d="M143.57,86.16v-9.4c0-16.14-14-29.23-32.56-29.23H36.88C20.26,47.53,6.46,58,3.71,71.72a19,19,0,0,0-.88,5.71v54.28c0,11.31,9.88,20.47,22,20.47s21.47-7.79,21.47-19.1V122.91H46L45.83,79c0-7.61-2.86-14,11.28-14H86.43c14.37-.34,15,4.55,15,13.79v3.71c0,8.47-.66,14.13-15,13.8H75.7v.07H68.45a9.49,9.49,0,0,0,0,19H95.82l1.48,0c33,0,47.31-17,46.27-29.23"/><path class="cls-1" d="M421.52,68.05C418.46,56,407.14,47,388.23,47h-81.5C301.35,47,297,51.6,297,57.31s4.36,9.48,9.74,9.48h64.06s8.51.13,8.51,6.69v9.9H311.7c-16.28,0-29.48,12.16-29.48,27.17v14.08c0,15,18.33,27.16,44.36,27.16l27.38-.06c5.61,0,12.51-4.25,12.51-9.5s-4.72-9.51-11.17-9.51l-16.73,0c-11,0-14.93-2.46-14.93-13.1v-5.46c0-7.23.49-13.1,14.93-13.1h26.37c15.47,0,15,1.46,14.94,11.69v21.71c0,7.5,5.54,16.44,16.3,16.44,0,0,9.2-.12,10.24-.33,12.15-1.75,15.88-9.43,15.88-19.09v-59a13.37,13.37,0,0,0-.78-4.46"/></svg>